<svg id="Layer_1" data-name="Layer 1" xmlns="http://www.w3.org/2000/svg" viewBox="0 0 234.98 150.44"><defs><style>.cls-1{fill:#231f20;}.cls-2{fill:#201d20;}</style></defs><title>lefsii logo</title><path class="cls-1" d="M112.91,54l-9.44,65c-.46,3.15,4.36,4.51,4.82,1.33l9.45-65c.45-3.15-4.36-4.51-4.83-1.33Z" transform="translate(-97.64 -20.79)"/><path class="cls-1" d="M131.76,48.55c-7.54,22-6.78,45.84-14.73,67.73-1.1,3,3.73,4.33,4.82,1.33,8-21.89,7.19-45.73,14.73-67.73,1-3.05-3.79-4.36-4.82-1.33Z" transform="translate(-97.64 -20.79)"/><path class="cls-1" d="M100.68,95.42c17.21-6.1,35.95-5.34,52.75-12.64,2.95-1.28.4-5.59-2.52-4.32-16.34,7.1-34.79,6.19-51.56,12.14-3,1.06-1.72,5.9,1.33,4.82Z" transform="translate(-97.64 -20.79)"/><path class="cls-1" d="M107.2,72.74l-.57-.61.64,2.43c.08-.37,8.88-1.36,9.88-1.52q5.84-.93,11.68-1.78,12.33-1.8,24.72-3.19c3.16-.36,3.2-5.36,0-5q-17.45,2-34.82,4.69c-3,.46-21.74,1.45-15.06,8.51,2.21,2.35,5.74-1.19,3.53-3.53Z" transform="translate(-97.64 -20.79)"/><path class="cls-1" d="M157.32,119.52q10-26.33,19.09-53c2.82-8.33,6-16.68,8.13-25.2,1.4-5.52,3.05-13.73-1.13-18.5-3.55-4-8.24-1.4-10.36,2.57-3.5,6.55-3.46,14.6-3.83,21.82a388.68,388.68,0,0,0,1.13,55c.51,5.52-.13,15,4.65,19.07s10.43-.91,14-4.2A49.76,49.76,0,0,0,205,80.79c0-4.11-1.45-10.13-6.93-9.08-5.13,1-6.2,7.61-6.44,11.84a67.39,67.39,0,0,0,3.23,24.82c1.6,4.82,4.63,11.1,10.47,11.4,6.74.35,10.1-8.17,12-13.29,3.51-9.27,6.2-18.92,9.25-28.36,5.32-16.51,13.78-36.24,6.12-53.28-.69-1.52-2.88-1.52-3.93-.51-6.84,6.6-4.14,19.36-4,27.78l.76,38.58,1.54,78.13c.06,3.21,5.06,3.22,5,0l-1.43-72.2L230,61l-.35-17.81c-.09-4.92-1.22-11.57,2.69-15.34l-3.93-.51c5.23,11.64,1,25.38-2.61,36.89s-7.38,23-11.09,34.48c-.78,2.41-1.52,4.85-2.46,7.2-.81,2-2.91,7.55-5.24,8.46-1.72.67-4.29-1.25-5.13-2.45a17.18,17.18,0,0,1-1.91-4,57.28,57.28,0,0,1-2.51-9.65c-1-5.41-1.91-12.5-.53-17.94.79-3.09,2.86-4.43,3-.28a38.61,38.61,0,0,1-.8,9.16,45.24,45.24,0,0,1-15.36,25.87c-1.83,1.5-2.51,2.55-4.76,1.85-2-.64-2-1.54-2.45-3.54a81.71,81.71,0,0,1-.93-8.27q-1-9.61-1.43-19.27c-.62-12.54-.62-25.12,0-37.67.26-5.42.26-11.15,1.73-16.41.57-2,2.92-8,4.7-3.68,1.24,3,0,8.11-.69,11C176.8,52.3,171.63,65.26,167.17,78q-7,20.17-14.67,40.15c-1.15,3,3.68,4.31,4.82,1.33Z" transform="translate(-97.64 -20.79)"/><path class="cls-1" d="M216.41,84.07l-.79-3.37c-.75-3.2-5.31-1.78-4.82,1.33,1.6,10.13,9.91,22.9,21.49,22.68s17.91-16.36,19-25.84c.38-3.19-4.62-3.16-5,0-.86,7.25-6.75,22.95-16.5,20.53-8.13-2-13-11.11-14.21-18.7L210.8,82l.79,3.37c.74,3.13,5.56,1.8,4.82-1.33Z" transform="translate(-97.64 -20.79)"/><path class="cls-1" d="M270.59,70.89c-1.23-6.09-8.42-2.11-11.17.14-5.4,4.41-10.37,10.62-11.5,17.67-.86,5.3.82,11,6.21,13,3.52,1.37,7.19.57,10.84.83,7.56.54,9.32,10,1.51,11.83l2.82,3.67a127.86,127.86,0,0,0,12.79-47.66h-5a108.21,108.21,0,0,0,3.12,27.94c1.23,5,3,13.47,10,11.72,6.47-1.62,8.88-10.54,10.51-16a76.65,76.65,0,0,0,2.89-26.94,2.5,2.5,0,0,0-5,0,198.5,198.5,0,0,0,.87,29c.61,5.77.52,14.18,5.62,18.08,10.76,8.22,24.2-7.47,27.33-16.42,1.06-3-3.77-4.36-4.83-1.33a23.34,23.34,0,0,1-9.17,12c-2.29,1.49-5.89,3.4-8.72,2.5-3.1-1-3.79-4.42-4.25-7.17a179.58,179.58,0,0,1-1.85-36.63h-5a72.59,72.59,0,0,1-1,18.73c-1.07,5.5-2.49,12.33-5.8,17-.84,1.17-3.15,2.66-4.6,1.39-.82-.72-1.46-4.37-1.74-5.4-.72-2.66-1.32-5.35-1.82-8.06a103.4,103.4,0,0,1-1.58-20.33c.05-3.25-4.78-3.18-5,0A121.39,121.39,0,0,1,265,115.55a2.53,2.53,0,0,0,2.82,3.67c10.5-2.46,12.24-17.4,1.43-20.94-6-2-17.39,2.23-16.49-7.94a18.85,18.85,0,0,1,3.93-9.23c.9-1.24,9.16-8.57,9.1-8.89.63,3.15,5.45,1.82,4.82-1.33Z" transform="translate(-97.64 -20.79)"/><path class="cls-1" d="M274.67,55.18v.59a2.5,2.5,0,0,0,5,0v-.59a2.5,2.5,0,0,0-5,0Z" transform="translate(-97.64 -20.79)"/><path class="cls-1" d="M299.06,54.13h.59a2.5,2.5,0,0,0,0-5h-.59a2.5,2.5,0,0,0,0,5Z" transform="translate(-97.64 -20.79)"/><path class="cls-2" d="M-127.41-47.57" transform="translate(-97.64 -20.79)"/></svg>